<svg version="1.1" viewBox="0.0 0.0 600.0 371.0" fill="none" stroke="none" stroke-linecap="square" stroke-miterlimit="10" width="600" height="371" xmlns:xlink="http://www.w3.org/1999/xlink" xmlns="http://www.w3.org/2000/svg"><path fill="#ffffff" d="M0 0L600.0 0L600.0 371.0L0 371.0L0 0Z" fill-rule="nonzero"/><path stroke="#333333" stroke-width="1.0" stroke-linecap="butt" d="M45.5 331.5L581.5 331.5" fill-rule="nonzero"/><path stroke="#cccccc" stroke-width="1.0" stroke-linecap="butt" d="M45.5 270.5L581.5 270.5" fill-rule="nonzero"/><path stroke="#cccccc" stroke-width="1.0" stroke-linecap="butt" d="M45.5 209.5L581.5 209.5" fill-rule="nonzero"/><path stroke="#cccccc" stroke-width="1.0" stroke-linecap="butt" d="M45.5 148.5L581.5 148.5" fill-rule="nonzero"/><path stroke="#cccccc" stroke-width="1.0" stroke-linecap="butt" d="M45.5 87.5L581.5 87.5" fill-rule="nonzero"/><path stroke="#cccccc" stroke-width="1.0" stroke-linecap="butt" d="M45.5 26.5L581.5 26.5" fill-rule="nonzero"/><clipPath id="id_0"><path d="M45.55 26.05L581.45 26.05L581.45 331.45L45.55 331.45L45.55 26.05Z" clip-rule="nonzero"/></clipPath><path stroke="#000000" stroke-width="0.0" stroke-linecap="butt" stroke-opacity="0.0" clip-path="url(#id_0)" d="M119.0 331.0L72.0 331.0L72.0 59.0C72.0 57.89543 72.89543 57.0 74.0 57.0L117.0 57.0C118.10457 57.0 119.0 57.89543 119.0 59.0Z" fill-rule="nonzero"/><path fill="#999999" clip-path="url(#id_0)" d="M119.0 331.0L72.0 331.0L72.0 59.0C72.0 57.89543 72.89543 57.0 74.0 57.0L117.0 57.0C118.10457 57.0 119.0 57.89543 119.0 59.0Z" fill-rule="nonzero"/><path stroke="#000000" stroke-width="0.0" stroke-linecap="butt" stroke-opacity="0.0" clip-path="url(#id_0)" d="M192.0 331.0L145.0 331.0L145.0 59.0C145.0 57.89543 145.89543 57.0 147.0 57.0L190.0 57.0C191.10457 57.0 192.0 57.89543 192.0 59.0Z" fill-rule="nonzero"/><path fill="#999999" clip-path="url(#id_0)" d="M192.0 331.0L145.0 331.0L145.0 59.0C145.0 57.89543 145.89543 57.0 147.0 57.0L190.0 57.0C191.10457 57.0 192.0 57.89543 192.0 59.0Z" fill-rule="nonzero"/><path stroke="#000000" stroke-width="0.0" stroke-linecap="butt" stroke-opacity="0.0" clip-path="url(#id_0)" d="M265.0 331.0L218.0 331.0L218.0 59.0C218.0 57.89543 218.89543 57.0 220.0 57.0L263.0 57.0C264.10458 57.0 265.0 57.89543 265.0 59.0Z" fill-rule="nonzero"/><path fill="#999999" clip-path="url(#id_0)" d="M265.0 331.0L218.0 331.0L218.0 59.0C218.0 57.89543 218.89543 57.0 220.0 57.0L263.0 57.0C264.10458 57.0 265.0 57.89543 265.0 59.0Z" fill-rule="nonzero"/><path stroke="#000000" stroke-width="0.0" stroke-linecap="butt" stroke-opacity="0.0" clip-path="url(#id_0)" d="M338.0 331.0L291.0 331.0L291.0 89.0C291.0 87.89543 291.89542 87.0 293.0 87.0L336.0 87.0C337.10458 87.0 338.0 87.89543 338.0 89.0Z" fill-rule="nonzero"/><path fill="#999999" clip-path="url(#id_0)" d="M338.0 331.0L291.0 331.0L291.0 89.0C291.0 87.89543 291.89542 87.0 293.0 87.0L336.0 87.0C337.10458 87.0 338.0 87.89543 338.0 89.0Z" fill-rule="nonzero"/><path stroke="#000000" stroke-width="0.0" stroke-linecap="butt" stroke-opacity="0.0" clip-path="url(#id_0)" d="M410.0 331.0L363.0 331.0L363.0 89.0C363.0 87.89543 363.89542 87.0 365.0 87.0L408.0 87.0C409.10458 87.0 410.0 87.89543 410.0 89.0Z" fill-rule="nonzero"/><path fill="#999999" clip-path="url(#id_0)" d="M410.0 331.0L363.0 331.0L363.0 89.0C363.0 87.89543 363.89542 87.0 365.0 87.0L408.0 87.0C409.10458 87.0 410.0 87.89543 410.0 89.0Z" fill-rule="nonzero"/><path stroke="#000000" stroke-width="0.0" stroke-linecap="butt" stroke-opacity="0.0" clip-path="url(#id_0)" d="M483.0 331.0L436.0 331.0L436.0 120.0C436.0 118.89543 436.89542 118.0 438.0 118.0L481.0 118.0C482.10458 118.0 483.0 118.89543 483.0 120.0Z" fill-rule="nonzero"/><path fill="#999999" clip-path="url(#id_0)" d="M483.0 331.0L436.0 331.0L436.0 120.0C436.0 118.89543 436.89542 118.0 438.0 118.0L481.0 118.0C482.10458 118.0 483.0 118.89543 483.0 120.0Z" fill-rule="nonzero"/><path stroke="#000000" stroke-width="0.0" stroke-linecap="butt" stroke-opacity="0.0" clip-path="url(#id_0)" d="M556.0 331.0L509.0 331.0L509.0 120.0C509.0 118.89543 509.89542 118.0 511.0 118.0L554.0 118.0C555.10455 118.0 556.0 118.89543 556.0 120.0Z" fill-rule="nonzero"/><path fill="#999999" clip-path="url(#id_0)" d="M556.0 331.0L509.0 331.0L509.0 120.0C509.0 118.89543 509.89542 118.0 511.0 118.0L554.0 118.0C555.10455 118.0 556.0 118.89543 556.0 120.0Z" fill-rule="nonzero"/><path fill="#757575" d="M38.6125 332.3094Q38.6125 334.21564 37.95625 335.15314Q37.315624 336.075 35.925 336.075Q34.565624 336.075 33.909374 335.16876Q33.253124 334.2625 33.221874 332.45L33.221874 331.0125Q33.221874 329.1219 33.8625 328.21564Q34.51875 327.29376 35.909374 327.29376Q37.284374 327.29376 37.940624 328.1844Q38.596874 329.0594 38.6125 330.90314L38.6125 332.3094ZM37.51875 330.825Q37.51875 329.45 37.128124 328.825Q36.753124 328.1844 35.909374 328.1844Q35.08125 328.1844 34.690624 328.825Q34.315624 329.45 34.315624 330.7469L34.315624 332.48126Q34.315624 333.85626 34.70625 334.52814Q35.1125 335.1844 35.925 335.1844Q36.721874 335.1844 37.1125 334.5594Q37.503124 333.9344 37.51875 332.60626L37.51875 330.825Z" fill-rule="nonzero"/><path fill="#757575" d="M36.815624 274.87L35.7375 274.87L35.7375 267.65125L33.55 268.44812L33.55 267.46375L36.659374 266.29187L36.815624 266.29187L36.815624 274.87Z" fill-rule="nonzero"/><path fill="#757575" d="M38.846874 213.79L33.253124 213.79L33.253124 213.00874L36.20625 209.7275Q36.8625 208.9775 37.1125 208.52437Q37.3625 208.05562 37.3625 207.55562Q37.3625 206.88374 36.95625 206.46187Q36.565624 206.02437 35.878124 206.02437Q35.08125 206.02437 34.628124 206.49312Q34.175 206.94624 34.175 207.77437L33.096874 207.77437Q33.096874 206.58687 33.846874 205.86812Q34.6125 205.13374 35.878124 205.13374Q37.08125 205.13374 37.76875 205.75874Q38.45625 206.38374 38.45625 207.43062Q38.45625 208.68062 36.846874 210.43062L34.565624 212.89937L38.846874 212.89937L38.846874 213.79Z" fill-rule="nonzero"/><path fill="#757575" d="M34.83125 147.91313L35.64375 147.91313Q36.425 147.8975 36.8625 147.50688Q37.3 147.11626 37.3 146.44438Q37.3 144.94438 35.8 144.94438Q35.096874 144.94438 34.675 145.35063Q34.26875 145.75688 34.26875 146.41313L33.175 146.41313Q33.175 145.3975 33.909374 144.72563Q34.659374 144.05376 35.8 144.05376Q37.003124 144.05376 37.690624 144.69438Q38.378124 145.335 38.378124 146.47563Q38.378124 147.03813 38.01875 147.55376Q37.659374 148.06938 37.034374 148.335Q37.7375 148.55376 38.1125 149.06938Q38.503124 149.585 38.503124 150.335Q38.503124 151.47563 37.753124 152.16313Q37.003124 152.835 35.8 152.835Q34.6125 152.835 33.846874 152.17876Q33.096874 151.5225 33.096874 150.46L34.190624 150.46Q34.190624 151.13188 34.628124 151.53813Q35.065624 151.94438 35.815624 151.94438Q36.596874 151.94438 37.003124 151.53813Q37.425 151.11626 37.425 150.35063Q37.425 149.61626 36.971874 149.22563Q36.51875 148.81938 35.64375 148.80376L34.83125 148.80376L34.83125 147.91313Z" fill-rule="nonzero"/><path fill="#757575" d="M37.83125 88.77062L39.01875 88.77062L39.01875 89.64562L37.83125 89.64562L37.83125 91.63L36.753124 91.63L36.753124 89.64562L32.8625 89.64562L32.8625 89.005L36.675 83.09875L37.83125 83.09875L37.83125 88.77062ZM34.096874 88.77062L36.753124 88.77062L36.753124 84.58312L36.6125 84.8175L34.096874 88.77062Z" fill-rule="nonzero"/><path fill="#757575" d="M33.753124 26.26875L34.190624 22.01875L38.565624 22.01875L38.565624 23.01875L35.1125 23.01875L34.846874 25.346874Q35.4875 24.971874 36.284374 24.971874Q37.440624 24.971874 38.128124 25.753124Q38.815624 26.51875 38.815624 27.83125Q38.815624 29.14375 38.096874 29.909374Q37.39375 30.675 36.1125 30.675Q34.9875 30.675 34.26875 30.05Q33.55 29.409374 33.45625 28.3L34.471874 28.3Q34.58125 29.034374 35.003124 29.409374Q35.425 29.784374 36.1125 29.784374Q36.8625 29.784374 37.3 29.26875Q37.7375 28.753124 37.7375 27.846874Q37.7375 26.9875 37.26875 26.471874Q36.8 25.95625 36.01875 25.95625Q35.315624 25.95625 34.909374 26.253124L34.628124 26.4875L33.753124 26.26875Z" fill-rule="nonzero"/><path fill="#757575" d="M70.827805 340.91876L71.96843 340.91876L71.96843 346.96564Q71.96843 348.1844 71.21843 348.8875Q70.484055 349.575 69.265305 349.575Q67.99968 349.575 67.28093 348.91876Q66.577805 348.2625 66.577805 347.09064L67.702805 347.09064Q67.702805 347.825 68.09343 348.2469Q68.49968 348.65314 69.265305 348.65314Q69.96843 348.65314 70.390305 348.21564Q70.827805 347.7625 70.827805 346.98126L70.827805 340.91876ZM77.99968 349.45Q77.90593 349.2625 77.84343 348.77814Q77.09343 349.575 76.046555 349.575Q75.109055 349.575 74.49968 349.04376Q73.90593 348.5125 73.90593 347.6844Q73.90593 346.7 74.65593 346.15314Q75.40593 345.60626 76.78093 345.60626L77.827805 345.60626L77.827805 345.10626Q77.827805 344.54376 77.484055 344.21564Q77.15593 343.8719 76.484055 343.8719Q75.90593 343.8719 75.515305 344.16876Q75.12468 344.45 75.12468 344.8719L74.03093 344.8719Q74.03093 344.3875 74.359055 343.95Q74.702805 343.5125 75.28093 343.2625Q75.859055 342.9969 76.546555 342.9969Q77.65593 342.9969 78.265305 343.54376Q78.890305 344.09064 78.921555 345.04376L78.921555 347.96564Q78.921555 348.84064 79.140305 349.35626L79.140305 349.45L77.99968 349.45ZM76.202805 348.6219Q76.71843 348.6219 77.171555 348.35626Q77.62468 348.09064 77.827805 347.66876L77.827805 346.3719L76.984055 346.3719Q74.984055 346.3719 74.984055 347.54376Q74.984055 348.04376 75.327805 348.34064Q75.671555 348.6219 76.202805 348.6219ZM83.171555 347.98126L84.74968 343.10626L85.859055 343.10626L83.577805 349.45L82.74968 349.45L80.452805 343.10626L81.56218 343.10626L83.171555 347.98126ZM90.99968 349.45Q90.90593 349.2625 90.84343 348.77814Q90.09343 349.575 89.046555 349.575Q88.109055 349.575 87.49968 349.04376Q86.90593 348.5125 86.90593 347.6844Q86.90593 346.7 87.65593 346.15314Q88.40593 345.60626 89.78093 345.60626L90.827805 345.60626L90.827805 345.10626Q90.827805 344.54376 90.484055 344.21564Q90.15593 343.8719 89.484055 343.8719Q88.90593 343.8719 88.515305 344.16876Q88.12468 344.45 88.12468 344.8719L87.03093 344.8719Q87.03093 344.3875 87.359055 343.95Q87.702805 343.5125 88.28093 343.2625Q88.859055 342.9969 89.546555 342.9969Q90.65593 342.9969 91.265305 343.54376Q91.890305 344.09064 91.921555 345.04376L91.921555 347.96564Q91.921555 348.84064 92.140305 349.35626L92.140305 349.45L90.99968 349.45ZM89.202805 348.6219Q89.71843 348.6219 90.171555 348.35626Q90.62468 348.09064 90.827805 347.66876L90.827805 346.3719L89.984055 346.3719Q87.984055 346.3719 87.984055 347.54376Q87.984055 348.04376 88.327805 348.34064Q88.671555 348.6219 89.202805 348.6219ZM97.78093 347.7625Q97.78093 347.325 97.43718 347.09064Q97.109055 346.84064 96.28093 346.66876Q95.46843 346.4969 94.984055 346.2469Q94.49968 345.9969 94.265305 345.66876Q94.046555 345.325 94.046555 344.85626Q94.046555 344.075 94.702805 343.54376Q95.359055 342.9969 96.390305 342.9969Q97.46843 342.9969 98.12468 343.5594Q98.796555 344.10626 98.796555 344.96564L97.71843 344.96564Q97.71843 344.52814 97.327805 344.21564Q96.952805 343.8875 96.390305 343.8875Q95.796555 343.8875 95.452805 344.15314Q95.12468 344.40314 95.12468 344.8094Q95.12468 345.2 95.43718 345.40314Q95.74968 345.60626 96.56218 345.79376Q97.37468 345.96564 97.87468 346.21564Q98.37468 346.46564 98.609055 346.825Q98.859055 347.1844 98.859055 347.6844Q98.859055 348.54376 98.171555 349.0594Q97.49968 349.575 96.421555 349.575Q95.65593 349.575 95.06218 349.3094Q94.484055 349.02814 94.15593 348.54376Q93.827805 348.0594 93.827805 347.4969L94.90593 347.4969Q94.93718 348.04376 95.34343 348.3719Q95.74968 348.6844 96.421555 348.6844Q97.03093 348.6844 97.40593 348.4344Q97.78093 348.1844 97.78093 347.7625ZM102.62468 348.6844Q103.202805 348.6844 103.640305 348.34064Q104.077805 347.98126 104.12468 347.45L105.15593 347.45Q105.12468 347.9969 104.765305 348.4969Q104.421555 348.98126 103.84343 349.27814Q103.28093 349.575 102.62468 349.575Q101.327805 349.575 100.56218 348.71564Q99.81218 347.84064 99.81218 346.34064L99.81218 346.15314Q99.81218 345.23126 100.140305 344.5125Q100.484055 343.79376 101.109055 343.40314Q101.74968 342.9969 102.62468 342.9969Q103.68718 342.9969 104.390305 343.6375Q105.109055 344.2625 105.15593 345.29376L104.12468 345.29376Q104.077805 344.66876 103.65593 344.27814Q103.234055 343.8875 102.62468 343.8875Q101.796555 343.8875 101.34343 344.48126Q100.890305 345.075 100.890305 346.2L100.890305 346.40314Q100.890305 347.4969 101.34343 348.09064Q101.796555 348.6844 102.62468 348.6844ZM109.15593 344.075Q108.90593 344.04376 108.62468 344.04376Q107.546555 344.04376 107.171555 344.95L107.171555 349.45L106.09343 349.45L106.09343 343.10626L107.140305 343.10626L107.15593 343.84064Q107.68718 342.9969 108.671555 342.9969Q108.984055 342.9969 109.15593 343.075L109.15593 344.075ZM111.265305 349.45L110.18718 349.45L110.18718 343.10626L111.265305 343.10626L111.265305 349.45ZM110.09343 341.4344Q110.09343 341.16876 110.24968 340.98126Q110.421555 340.79376 110.734055 340.79376Q111.046555 340.79376 111.202805 340.98126Q111.37468 341.16876 111.37468 341.4344Q111.37468 341.6844 111.202805 341.8719Q111.046555 342.04376 110.734055 342.04376Q110.421555 342.04376 110.24968 341.8719Q110.09343 341.6844 110.09343 341.4344ZM118.43718 346.35626Q118.43718 347.79376 117.78093 348.6844Q117.12468 349.575 115.984055 349.575Q114.827805 349.575 114.171555 348.84064L114.171555 351.8875L113.09343 351.8875L113.09343 343.10626L114.077805 343.10626L114.12468 343.8094Q114.796555 342.9969 115.96843 342.9969Q117.109055 342.9969 117.765305 343.85626Q118.43718 344.71564 118.43718 346.2469L118.43718 346.35626ZM117.359055 346.23126Q117.359055 345.15314 116.890305 344.54376Q116.43718 343.91876 115.640305 343.91876Q114.65593 343.91876 114.171555 344.77814L114.171555 347.8094Q114.65593 348.6844 115.65593 348.6844Q116.43718 348.6844 116.890305 348.075Q117.359055 347.45 117.359055 346.23126ZM121.56218 341.575L121.56218 343.10626L122.734055 343.10626L122.734055 343.95L121.56218 343.95L121.56218 347.8719Q121.56218 348.2625 121.71843 348.45Q121.87468 348.6375 122.24968 348.6375Q122.43718 348.6375 122.765305 348.575L122.765305 349.45Q122.34343 349.575 121.93718 349.575Q121.21843 349.575 120.84343 349.1375Q120.46843 348.6844 120.46843 347.8719L120.46843 343.95L119.31218 343.95L119.31218 343.10626L120.46843 343.10626L120.46843 341.575L121.56218 341.575Z" fill-rule="nonzero"/><path fill="#757575" d="M159.22374 349.45L158.09874 349.45L158.09874 345.5125L153.78624 345.5125L153.78624 349.45L152.66124 349.45L152.66124 340.91876L153.78624 340.91876L153.78624 344.59064L158.09874 344.59064L158.09874 340.91876L159.22374 340.91876L159.22374 349.45ZM167.56749 341.84064L164.81749 341.84064L164.81749 349.45L163.70811 349.45L163.70811 341.84064L160.95811 341.84064L160.95811 340.91876L167.56749 340.91876L167.56749 341.84064ZM170.11436 340.91876L172.91124 347.8719L175.69249 340.91876L177.16124 340.91876L177.16124 349.45L176.03624 349.45L176.03624 346.1219L176.14561 342.54376L173.33311 349.45L172.47374 349.45L169.67686 342.5594L169.78624 346.1219L169.78624 349.45L168.66124 349.45L168.66124 340.91876L170.11436 340.91876ZM179.80186 348.52814L183.84874 348.52814L183.84874 349.45L178.66124 349.45L178.66124 340.91876L179.80186 340.91876L179.80186 348.52814Z" fill-rule="nonzero"/><path fill="#757575" d="M236.85406 346.7469Q236.69781 348.09064 235.85406 348.84064Q235.01031 349.575 233.61969 349.575Q232.10406 349.575 231.19781 348.4969Q230.29156 347.40314 230.29156 345.575L230.29156 344.7625Q230.29156 343.575 230.71344 342.66876Q231.13531 341.7625 231.91656 341.27814Q232.69781 340.79376 233.71344 340.79376Q235.07281 340.79376 235.88531 341.5594Q236.71344 342.325 236.85406 343.65314L235.72906 343.65314Q235.57281 342.6375 235.08844 342.1844Q234.60406 341.73126 233.71344 341.73126Q232.63531 341.73126 232.02594 342.52814Q231.41656 343.325 231.41656 344.79376L231.41656 345.6219Q231.41656 347.0125 231.99469 347.84064Q232.57281 348.65314 233.61969 348.65314Q234.55719 348.65314 235.05719 348.23126Q235.55719 347.79376 235.72906 346.7469L236.85406 346.7469ZM241.08844 345.65314Q239.65094 345.23126 238.97906 344.6219Q238.32281 344.0125 238.32281 343.1219Q238.32281 342.1219 239.11969 341.46564Q239.93219 340.79376 241.22906 340.79376Q242.10406 340.79376 242.79156 341.1375Q243.47906 341.48126 243.85406 342.075Q244.24469 342.66876 244.24469 343.3875L243.10406 343.3875Q243.10406 342.60626 242.60406 342.16876Q242.11969 341.73126 241.22906 341.73126Q240.40094 341.73126 239.93219 342.10626Q239.46344 342.46564 239.46344 343.10626Q239.46344 343.6375 239.90094 343.9969Q240.35406 344.35626 241.41656 344.65314Q242.47906 344.95 243.07281 345.3094Q243.68219 345.66876 243.96344 346.15314Q244.26031 346.6375 244.26031 347.27814Q244.26031 348.325 243.44781 348.95Q242.63531 349.575 241.29156 349.575Q240.40094 349.575 239.63531 349.23126Q238.88531 348.8875 238.46344 348.3094Q238.05719 347.71564 238.05719 346.98126L239.18219 346.98126Q239.18219 347.7469 239.76031 348.2Q240.33844 348.65314 241.29156 348.65314Q242.18219 348.65314 242.65094 348.29376Q243.11969 347.91876 243.11969 347.29376Q243.11969 346.66876 242.68219 346.325Q242.24469 345.98126 241.08844 345.65314ZM248.08844 345.65314Q246.65094 345.23126 245.97906 344.6219Q245.32281 344.0125 245.32281 343.1219Q245.32281 342.1219 246.11969 341.46564Q246.93219 340.79376 248.22906 340.79376Q249.10406 340.79376 249.79156 341.1375Q250.47906 341.48126 250.85406 342.075Q251.24469 342.66876 251.24469 343.3875L250.10406 343.3875Q250.10406 342.60626 249.60406 342.16876Q249.11969 341.73126 248.22906 341.73126Q247.40094 341.73126 246.93219 342.10626Q246.46344 342.46564 246.46344 343.10626Q246.46344 343.6375 246.90094 343.9969Q247.35406 344.35626 248.41656 344.65314Q249.47906 344.95 250.07281 345.3094Q250.68219 345.66876 250.96344 346.15314Q251.26031 346.6375 251.26031 347.27814Q251.26031 348.325 250.44781 348.95Q249.63531 349.575 248.29156 349.575Q247.40094 349.575 246.63531 349.23126Q245.88531 348.8875 245.46344 348.3094Q245.05719 347.71564 245.05719 346.98126L246.18219 346.98126Q246.18219 347.7469 246.76031 348.2Q247.33844 348.65314 248.29156 348.65314Q249.18219 348.65314 249.65094 348.29376Q250.11969 347.91876 250.11969 347.29376Q250.11969 346.66876 249.68219 346.325Q249.24469 345.98126 248.08844 345.65314Z" fill-rule="nonzero"/><path fill="#757575" d="M306.5 345.65314Q305.0625 345.23126 304.39062 344.6219Q303.73438 344.0125 303.73438 343.1219Q303.73438 342.1219 304.53125 341.46564Q305.34375 340.79376 306.64062 340.79376Q307.51562 340.79376 308.20312 341.1375Q308.89062 341.48126 309.26562 342.075Q309.65625 342.66876 309.65625 343.3875L308.51562 343.3875Q308.51562 342.60626 308.01562 342.16876Q307.53125 341.73126 306.64062 341.73126Q305.8125 341.73126 305.34375 342.10626Q304.875 342.46564 304.875 343.10626Q304.875 343.6375 305.3125 343.9969Q305.76562 344.35626 306.82812 344.65314Q307.89062 344.95 308.48438 345.3094Q309.09375 345.66876 309.375 346.15314Q309.67188 346.6375 309.67188 347.27814Q309.67188 348.325 308.85938 348.95Q308.04688 349.575 306.70312 349.575Q305.8125 349.575 305.04688 349.23126Q304.29688 348.8875 303.875 348.3094Q303.46875 347.71564 303.46875 346.98126L304.59375 346.98126Q304.59375 347.7469 305.17188 348.2Q305.75 348.65314 306.70312 348.65314Q307.59375 348.65314 308.0625 348.29376Q308.53125 347.91876 308.53125 347.29376Q308.53125 346.66876 308.09375 346.325Q307.65625 345.98126 306.5 345.65314ZM317.5 345.46564Q317.5 346.7 317.10938 347.59064Q316.71875 348.48126 316.01562 348.98126L317.53125 350.1844L316.76562 350.8875L314.96875 349.46564Q314.54688 349.575 314.07812 349.575Q313.07812 349.575 312.29688 349.075Q311.51562 348.575 311.07812 347.66876Q310.65625 346.7469 310.64062 345.52814L310.64062 344.91876Q310.64062 343.6844 311.0625 342.7469Q311.5 341.8094 312.28125 341.3094Q313.0625 340.79376 314.0625 340.79376Q315.09375 340.79376 315.875 341.29376Q316.65625 341.79376 317.07812 342.73126Q317.5 343.66876 317.5 344.91876L317.5 345.46564ZM316.375 344.90314Q316.375 343.40314 315.78125 342.59064Q315.1875 341.7625 314.0625 341.7625Q313.0 341.7625 312.39062 342.575Q311.78125 343.3875 311.76562 344.825L311.76562 345.46564Q311.76562 346.91876 312.375 347.7625Q312.98438 348.60626 314.07812 348.60626Q315.17188 348.60626 315.76562 347.825Q316.35938 347.02814 316.375 345.54376L316.375 344.90314ZM320.125 348.52814L324.17188 348.52814L324.17188 349.45L318.98438 349.45L318.98438 340.91876L320.125 340.91876L320.125 348.52814Z" fill-rule="nonzero"/><path fill="#757575" d="M369.02094 346.10626L369.02094 349.45L367.89594 349.45L367.89594 340.91876L371.0522 340.91876Q372.4428 340.91876 373.2397 341.6375Q374.03656 342.34064 374.03656 343.52814Q374.03656 344.7625 373.2553 345.4344Q372.4897 346.10626 371.03656 346.10626L369.02094 346.10626ZM369.02094 345.1844L371.0522 345.1844Q371.95844 345.1844 372.4272 344.7625Q372.91156 344.34064 372.91156 343.54376Q372.91156 342.77814 372.4272 342.325Q371.95844 341.85626 371.1147 341.84064L369.02094 341.84064L369.02094 345.1844ZM377.8022 347.85626L379.28656 343.10626L380.4428 343.10626L377.89594 350.4344Q377.3022 352.0125 376.02094 352.0125L375.8022 351.9969L375.41156 351.91876L375.41156 351.04376L375.6928 351.0594Q376.2553 351.0594 376.5522 350.84064Q376.8647 350.6219 377.0678 350.02814L377.3022 349.3719L375.03656 343.10626L376.22406 343.10626L377.8022 347.85626ZM383.20844 341.575L383.20844 343.10626L384.3803 343.10626L384.3803 343.95L383.20844 343.95L383.20844 347.8719Q383.20844 348.2625 383.3647 348.45Q383.52094 348.6375 383.89594 348.6375Q384.08344 348.6375 384.41156 348.575L384.41156 349.45Q383.9897 349.575 383.58344 349.575Q382.8647 349.575 382.4897 349.1375Q382.1147 348.6844 382.1147 347.8719L382.1147 343.95L380.95844 343.95L380.95844 343.10626L382.1147 343.10626L382.1147 341.575L383.20844 341.575ZM386.8178 343.8719Q387.53656 342.9969 388.6928 342.9969Q390.70844 342.9969 390.72406 345.2625L390.72406 349.45L389.6303 349.45L389.6303 345.2469Q389.6303 344.575 389.3178 344.2469Q389.02094 343.91876 388.3647 343.91876Q387.83344 343.91876 387.4272 344.2Q387.03656 344.48126 386.8178 344.9344L386.8178 349.45L385.7397 349.45L385.7397 340.45L386.8178 340.45L386.8178 343.8719ZM392.4428 346.21564Q392.4428 345.29376 392.8022 344.54376Q393.1772 343.79376 393.83344 343.40314Q394.4897 342.9969 395.3178 342.9969Q396.6147 342.9969 397.41156 343.8875Q398.22406 344.77814 398.22406 346.27814L398.22406 346.35626Q398.22406 347.27814 397.8647 348.0125Q397.5053 348.7469 396.84906 349.16876Q396.1928 349.575 395.33344 349.575Q394.0522 349.575 393.2397 348.6844Q392.4428 347.77814 392.4428 346.29376L392.4428 346.21564ZM393.53656 346.35626Q393.53656 347.40314 394.02094 348.04376Q394.52094 348.6844 395.33344 348.6844Q396.16156 348.6844 396.64594 348.04376Q397.1303 347.3875 397.1303 346.21564Q397.1303 345.1844 396.6303 344.54376Q396.14594 343.8875 395.3178 343.8875Q394.52094 343.8875 394.02094 344.52814Q393.53656 345.15314 393.53656 346.35626ZM400.7553 343.10626L400.78656 343.90314Q401.52094 342.9969 402.6928 342.9969Q404.70844 342.9969 404.72406 345.2625L404.72406 349.45L403.6303 349.45L403.6303 345.2469Q403.6303 344.575 403.3178 344.2469Q403.02094 343.91876 402.3647 343.91876Q401.83344 343.91876 401.4272 344.2Q401.03656 344.48126 400.8178 344.9344L400.8178 349.45L399.7397 349.45L399.7397 343.10626L400.7553 343.10626Z" fill-rule="nonzero"/><path fill="#757575" d="M430.44812 348.52814L434.495 348.52814L434.495 349.45L429.3075 349.45L429.3075 340.91876L430.44812 340.91876L430.44812 348.52814ZM436.32312 349.45L435.245 349.45L435.245 343.10626L436.32312 343.10626L436.32312 349.45ZM435.15125 341.4344Q435.15125 341.16876 435.3075 340.98126Q435.47937 340.79376 435.79187 340.79376Q436.10437 340.79376 436.26062 340.98126Q436.4325 341.16876 436.4325 341.4344Q436.4325 341.6844 436.26062 341.8719Q436.10437 342.04376 435.79187 342.04376Q435.47937 342.04376 435.3075 341.8719Q435.15125 341.6844 435.15125 341.4344ZM439.16687 343.10626L439.19812 343.90314Q439.9325 342.9969 441.10437 342.9969Q443.12 342.9969 443.13562 345.2625L443.13562 349.45L442.04187 349.45L442.04187 345.2469Q442.04187 344.575 441.72937 344.2469Q441.4325 343.91876 440.77625 343.91876Q440.245 343.91876 439.83875 344.2Q439.44812 344.48126 439.22937 344.9344L439.22937 349.45L438.15125 349.45L438.15125 343.10626L439.16687 343.10626ZM449.0575 348.825Q448.4325 349.575 447.19812 349.575Q446.1825 349.575 445.65125 348.98126Q445.12 348.3875 445.12 347.23126L445.12 343.10626L446.19812 343.10626L446.19812 347.2Q446.19812 348.65314 447.37 348.65314Q448.62 348.65314 449.02625 347.71564L449.02625 343.10626L450.12 343.10626L450.12 349.45L449.08875 349.45L449.0575 348.825ZM454.27625 345.41876L455.6825 343.10626L456.94812 343.10626L454.87 346.2469L457.01062 349.45L455.76062 349.45L454.29187 347.075L452.82312 349.45L451.5575 349.45L453.69812 346.2469L451.63562 343.10626L452.88562 343.10626L454.27625 345.41876ZM467.21375 341.84064L464.46375 341.84064L464.46375 349.45L463.35437 349.45L463.35437 341.84064L460.60437 341.84064L460.60437 340.91876L467.21375 340.91876L467.21375 341.84064ZM467.85437 346.21564Q467.85437 345.29376 468.21375 344.54376Q468.58875 343.79376 469.245 343.40314Q469.90125 342.9969 470.72937 342.9969Q472.02625 342.9969 472.82312 343.8875Q473.63562 344.77814 473.63562 346.27814L473.63562 346.35626Q473.63562 347.27814 473.27625 348.0125Q472.91687 348.7469 472.26062 349.16876Q471.60437 349.575 470.745 349.575Q469.46375 349.575 468.65125 348.6844Q467.85437 347.77814 467.85437 346.29376L467.85437 346.21564ZM468.94812 346.35626Q468.94812 347.40314 469.4325 348.04376Q469.9325 348.6844 470.745 348.6844Q471.57312 348.6844 472.0575 348.04376Q472.54187 347.3875 472.54187 346.21564Q472.54187 345.1844 472.04187 344.54376Q471.5575 343.8875 470.72937 343.8875Q469.9325 343.8875 469.4325 344.52814Q468.94812 345.15314 468.94812 346.35626ZM474.85437 346.21564Q474.85437 345.29376 475.21375 344.54376Q475.58875 343.79376 476.245 343.40314Q476.90125 342.9969 477.72937 342.9969Q479.02625 342.9969 479.82312 343.8875Q480.63562 344.77814 480.63562 346.27814L480.63562 346.35626Q480.63562 347.27814 480.27625 348.0125Q479.91687 348.7469 479.26062 349.16876Q478.60437 349.575 477.745 349.575Q476.46375 349.575 475.65125 348.6844Q474.85437 347.77814 474.85437 346.29376L474.85437 346.21564ZM475.94812 346.35626Q475.94812 347.40314 476.4325 348.04376Q476.9325 348.6844 477.745 348.6844Q478.57312 348.6844 479.0575 348.04376Q479.54187 347.3875 479.54187 346.21564Q479.54187 345.1844 479.04187 344.54376Q478.5575 343.8875 477.72937 343.8875Q476.9325 343.8875 476.4325 344.52814Q475.94812 345.15314 475.94812 346.35626ZM483.32312 349.45L482.245 349.45L482.245 340.45L483.32312 340.45L483.32312 349.45ZM488.83875 347.7625Q488.83875 347.325 488.495 347.09064Q488.16687 346.84064 487.33875 346.66876Q486.52625 346.4969 486.04187 346.2469Q485.5575 345.9969 485.32312 345.66876Q485.10437 345.325 485.10437 344.85626Q485.10437 344.075 485.76062 343.54376Q486.41687 342.9969 487.44812 342.9969Q488.52625 342.9969 489.1825 343.5594Q489.85437 344.10626 489.85437 344.96564L488.77625 344.96564Q488.77625 344.52814 488.38562 344.21564Q488.01062 343.8875 487.44812 343.8875Q486.85437 343.8875 486.51062 344.15314Q486.1825 344.40314 486.1825 344.8094Q486.1825 345.2 486.495 345.40314Q486.8075 345.60626 487.62 345.79376Q488.4325 345.96564 488.9325 346.21564Q489.4325 346.46564 489.66687 346.825Q489.91687 347.1844 489.91687 347.6844Q489.91687 348.54376 489.22937 349.0594Q488.5575 349.575 487.47937 349.575Q486.71375 349.575 486.12 349.3094Q485.54187 349.02814 485.21375 348.54376Q484.88562 348.0594 484.88562 347.4969L485.96375 347.4969Q485.995 348.04376 486.40125 348.3719Q486.8075 348.6844 487.47937 348.6844Q488.08875 348.6844 488.46375 348.4344Q488.83875 348.1844 488.83875 347.7625Z" fill-rule="nonzero"/><path fill="#757575" d="M517.1253 341.84064L514.3753 341.84064L514.3753 349.45L513.2659 349.45L513.2659 341.84064L510.51593 341.84064L510.51593 340.91876L517.1253 340.91876L517.1253 341.84064ZM521.96906 349.45Q521.8753 349.2625 521.8128 348.77814Q521.0628 349.575 520.0159 349.575Q519.0784 349.575 518.46906 349.04376Q517.8753 348.5125 517.8753 347.6844Q517.8753 346.7 518.6253 346.15314Q519.3753 345.60626 520.7503 345.60626L521.7972 345.60626L521.7972 345.10626Q521.7972 344.54376 521.4534 344.21564Q521.1253 343.8719 520.4534 343.8719Q519.8753 343.8719 519.4847 344.16876Q519.09406 344.45 519.09406 344.8719L518.0003 344.8719Q518.0003 344.3875 518.3284 343.95Q518.6722 343.5125 519.2503 343.2625Q519.8284 342.9969 520.5159 342.9969Q521.6253 342.9969 522.2347 343.54376Q522.8597 344.09064 522.8909 345.04376L522.8909 347.96564Q522.8909 348.84064 523.1097 349.35626L523.1097 349.45L521.96906 349.45ZM520.1722 348.6219Q520.6878 348.6219 521.1409 348.35626Q521.59406 348.09064 521.7972 347.66876L521.7972 346.3719L520.9534 346.3719Q518.9534 346.3719 518.9534 347.54376Q518.9534 348.04376 519.2972 348.34064Q519.6409 348.6219 520.1722 348.6219ZM530.4222 346.35626Q530.4222 347.8094 529.7503 348.7Q529.09406 349.575 527.96906 349.575Q526.7659 349.575 526.1097 348.71564L526.0472 349.45L525.0628 349.45L525.0628 340.45L526.1409 340.45L526.1409 343.8094Q526.7972 342.9969 527.9534 342.9969Q529.1097 342.9969 529.7659 343.8719Q530.4222 344.73126 530.4222 346.2625L530.4222 346.35626ZM529.34406 346.23126Q529.34406 345.1219 528.90656 344.52814Q528.4847 343.91876 527.6878 343.91876Q526.6097 343.91876 526.1409 344.90314L526.1409 347.65314Q526.6409 348.65314 527.6878 348.65314Q528.46906 348.65314 528.90656 348.04376Q529.34406 347.4344 529.34406 346.23126ZM533.2347 349.45L532.15656 349.45L532.15656 340.45L533.2347 340.45L533.2347 349.45ZM537.6878 349.575Q536.3909 349.575 535.5784 348.73126Q534.78156 347.8719 534.78156 346.45L534.78156 346.2625Q534.78156 345.3094 535.1409 344.575Q535.5003 343.825 536.1409 343.41876Q536.7972 342.9969 537.5472 342.9969Q538.78156 342.9969 539.46906 343.8094Q540.15656 344.6219 540.15656 346.1375L540.15656 346.59064L535.8597 346.59064Q535.8909 347.52814 536.40656 348.10626Q536.9378 348.6844 537.7503 348.6844Q538.3128 348.6844 538.7034 348.45Q539.1097 348.21564 539.4222 347.825L540.0784 348.34064Q539.28156 349.575 537.6878 349.575ZM537.5472 343.8875Q536.8909 343.8875 536.4378 344.3719Q536.0003 344.84064 535.90656 345.7L539.0784 345.7L539.0784 345.6219Q539.03156 344.79376 538.6253 344.34064Q538.2347 343.8875 537.5472 343.8875ZM544.96906 349.45Q544.8753 349.2625 544.8128 348.77814Q544.0628 349.575 543.0159 349.575Q542.0784 349.575 541.46906 349.04376Q540.8753 348.5125 540.8753 347.6844Q540.8753 346.7 541.6253 346.15314Q542.3753 345.60626 543.7503 345.60626L544.7972 345.60626L544.7972 345.10626Q544.7972 344.54376 544.4534 344.21564Q544.1253 343.8719 543.4534 343.8719Q542.8753 343.8719 542.4847 344.16876Q542.09406 344.45 542.09406 344.8719L541.0003 344.8719Q541.0003 344.3875 541.3284 343.95Q541.6722 343.5125 542.2503 343.2625Q542.8284 342.9969 543.5159 342.9969Q544.6253 342.9969 545.2347 343.54376Q545.8597 344.09064 545.8909 345.04376L545.8909 347.96564Q545.8909 348.84064 546.1097 349.35626L546.1097 349.45L544.96906 349.45ZM543.1722 348.6219Q543.6878 348.6219 544.1409 348.35626Q544.59406 348.09064 544.7972 347.66876L544.7972 346.3719L543.9534 346.3719Q541.9534 346.3719 541.9534 347.54376Q541.9534 348.04376 542.2972 348.34064Q542.6409 348.6219 543.1722 348.6219ZM551.96906 348.825Q551.34406 349.575 550.1097 349.575Q549.09406 349.575 548.5628 348.98126Q548.03156 348.3875 548.03156 347.23126L548.03156 343.10626L549.1097 343.10626L549.1097 347.2Q549.1097 348.65314 550.28156 348.65314Q551.53156 348.65314 551.9378 347.71564L551.9378 343.10626L553.03156 343.10626L553.03156 349.45L552.0003 349.45L551.96906 348.825Z" fill-rule="nonzero"/></svg>